<svg xmlns="http://www.w3.org/2000/svg" style="display: none;">

<symbol id="icon1" viewBox="0 -9 58 58" fill="none">
  <rect x=".5" y=".5" width="57" height="39" rx="3.5" fill="#fff" stroke="#F3F3F3"/>
  <path fill-rule="evenodd" clip-rule="evenodd" d="M19.665 16.174c.406 0 .757.073 1.051.215.296.143.541.337.737.58.193.244.337.53.43.857.092.328.139.68.139 1.059 0 .58-.107 1.128-.323 1.644a4.136 4.136 0 0 1-2.198 2.255 4.034 4.034 0 0 1-1.646.335c-.076 0-.21-.002-.4-.006a5.817 5.817 0 0 1-.652-.056 7.65 7.65 0 0 1-.78-.152 3.927 3.927 0 0 1-.779-.278l2.192-9.161 1.963-.303-.785 3.25c.168-.075.337-.133.506-.175.17-.041.351-.064.545-.064ZM18.02 21.57c.296 0 .574-.072.836-.215.262-.142.489-.334.678-.573.19-.24.34-.51.45-.813.11-.302.165-.618.165-.946 0-.403-.068-.718-.203-.945-.135-.226-.385-.34-.748-.34-.119 0-.272.022-.462.063-.19.043-.36.132-.514.265l-.835 3.453.133.025a1.345 1.345 0 0 0 .272.026h.228ZM24.058 22.943h-1.875l1.583-6.629h1.888l-1.596 6.629Zm.912-7.436c-.262 0-.499-.078-.71-.233-.212-.154-.317-.392-.317-.712 0-.176.036-.342.107-.497a1.323 1.323 0 0 1 .697-.675c.157-.067.324-.1.502-.1.261 0 .497.077.708.232.21.156.317.394.317.712 0 .177-.036.343-.108.499a1.32 1.32 0 0 1-1.196.774ZM27.297 14.663l1.964-.302-.482 1.953h2.103l-.38 1.537h-2.09l-.558 2.32c-.05.192-.08.373-.088.54a.987.987 0 0 0 .063.436.55.55 0 0 0 .272.282c.131.068.318.102.564.102.202 0 .399-.02.59-.057.189-.037.38-.09.575-.158l.14 1.438a6.755 6.755 0 0 1-.824.239 4.78 4.78 0 0 1-1.051.1c-.583 0-1.034-.086-1.356-.257a1.504 1.504 0 0 1-.685-.707 2.231 2.231 0 0 1-.177-1.026 6.64 6.64 0 0 1 .177-1.223l1.243-5.217ZM30.799 20.297c0-.571.093-1.11.279-1.614.185-.504.452-.945.799-1.324a3.735 3.735 0 0 1 1.26-.894 4.04 4.04 0 0 1 1.653-.328 4.132 4.132 0 0 1 1.837.39l-.647 1.463a6.195 6.195 0 0 0-.525-.182 2.304 2.304 0 0 0-.665-.083c-.626 0-1.12.215-1.489.642-.366.429-.551 1.005-.551 1.728 0 .428.093.774.279 1.04.186.264.528.396 1.026.396a3.496 3.496 0 0 0 1.318-.264l.14 1.5a6.717 6.717 0 0 1-.786.246c-.287.07-.63.106-1.027.106-.523 0-.967-.076-1.33-.226a2.533 2.533 0 0 1-.898-.612 2.301 2.301 0 0 1-.514-.902 3.658 3.658 0 0 1-.159-1.082ZM39.127 23.12c-.447 0-.836-.068-1.165-.202a2.155 2.155 0 0 1-.817-.567 2.45 2.45 0 0 1-.488-.863 3.464 3.464 0 0 1-.163-1.102c0-.505.081-1.01.246-1.513.164-.504.407-.958.73-1.36.319-.404.712-.734 1.177-.992.463-.255.996-.383 1.595-.383.44 0 .826.067 1.16.202.333.134.607.324.824.567.214.244.377.531.486.863.11.331.165.7.165 1.102 0 .504-.08 1.009-.24 1.514-.16.502-.397.957-.71 1.36a3.716 3.716 0 0 1-1.171.99c-.469.255-1.012.383-1.629.383Zm.937-5.394c-.278 0-.523.08-.734.239a2.06 2.06 0 0 0-.531.605 2.977 2.977 0 0 0-.324.8c-.072.29-.107.565-.107.825 0 .42.068.748.202.984.136.235.38.353.735.353.279 0 .523-.08.735-.24.21-.16.387-.361.532-.605.143-.243.251-.51.323-.8.072-.29.107-.565.107-.825 0-.42-.067-.748-.203-.984-.135-.235-.38-.352-.735-.352ZM44.92 22.943h-1.877l1.584-6.629h1.889l-1.596 6.629Zm.91-7.436c-.26 0-.498-.078-.708-.233-.212-.154-.318-.392-.318-.712 0-.176.036-.342.108-.497.072-.156.167-.29.285-.404.118-.113.257-.203.412-.271.156-.067.323-.1.5-.1.262 0 .499.077.71.232.211.156.317.394.317.712 0 .177-.038.343-.108.499a1.31 1.31 0 0 1-.696.674c-.157.068-.323.1-.501.1ZM47.866 16.616c.142-.041.301-.09.474-.145a7.175 7.175 0 0 1 1.305-.264 8.19 8.19 0 0 1 .906-.045c.988 0 1.67.287 2.047.858.375.572.44 1.353.196 2.344l-.862 3.579h-1.887l.836-3.504c.05-.219.09-.43.12-.637a1.5 1.5 0 0 0-.006-.541.646.646 0 0 0-.234-.378c-.124-.097-.31-.145-.564-.145-.245 0-.493.026-.747.076l-1.23 5.129h-1.887l1.533-6.327ZM25.212 26.894l-.368.665h-.398a30.214 30.214 0 0 1 1.61-2.589h.357c.038.187.072.376.104.566a29.737 29.737 0 0 1 .178 1.265c.028.234.056.486.086.758h-.367a14.698 14.698 0 0 1-.034-.338c-.01-.113-.022-.222-.034-.327h-1.134Zm1.1-.292a18.759 18.759 0 0 0-.161-1.217 17.927 17.927 0 0 0-.77 1.218h.931ZM28.112 27.614a1.2 1.2 0 0 1-.43-.07.824.824 0 0 1-.31-.202.836.836 0 0 1-.186-.316 1.307 1.307 0 0 1-.061-.416c0-.224.035-.439.107-.643.07-.204.172-.384.304-.541.13-.157.29-.282.474-.376.186-.093.392-.14.62-.14.195 0 .35.02.467.06.116.04.2.077.25.112l-.15.299a1.08 1.08 0 0 0-.586-.157.898.898 0 0 0-.465.122c-.138.08-.255.185-.35.313a1.441 1.441 0 0 0-.217.434c-.05.16-.075.319-.075.476 0 .485.211.728.634.728a1.42 1.42 0 0 0 .432-.062 1 1 0 0 0 .146-.054l.113-.052.045.313a.975.975 0 0 1-.118.056 1.52 1.52 0 0 1-.389.1c-.08.01-.165.016-.255.016ZM30.22 27.614a1.2 1.2 0 0 1-.429-.07.825.825 0 0 1-.31-.202.839.839 0 0 1-.186-.316 1.307 1.307 0 0 1-.061-.416c0-.224.035-.439.107-.643.07-.204.172-.384.304-.541a1.49 1.49 0 0 1 .474-.376c.186-.093.392-.14.62-.14.195 0 .35.02.467.06.117.04.2.077.25.112l-.15.299a1.084 1.084 0 0 0-.586-.157.899.899 0 0 0-.465.122c-.138.08-.254.185-.35.313a1.593 1.593 0 0 0-.293.91c0 .485.212.728.635.728a1.42 1.42 0 0 0 .432-.062 1 1 0 0 0 .146-.054l.113-.052.045.313a.985.985 0 0 1-.118.056 1.513 1.513 0 0 1-.389.1c-.08.01-.165.016-.255.016ZM31.229 27.558l.623-2.588h1.535l-.071.303H32.14l-.188.78h1.044l-.072.295h-1.04l-.22.908h1.26l-.07.302h-1.626ZM34.474 24.944c.303 0 .531.057.685.172.154.114.23.281.23.5 0 .17-.031.316-.095.439a.82.82 0 0 1-.272.305 1.26 1.26 0 0 1-.424.177c-.165.038-.35.058-.552.058h-.259l-.233.963h-.364l.616-2.554c.105-.025.216-.041.334-.049a5.06 5.06 0 0 1 .334-.011Zm-.045.306c-.178 0-.285.005-.323.015l-.248 1.027h.237c.105 0 .212-.009.323-.028a.965.965 0 0 0 .296-.099.6.6 0 0 0 .216-.196.565.565 0 0 0 .084-.323c0-.142-.052-.243-.157-.304a.852.852 0 0 0-.428-.092ZM37.61 24.97l-.07.303h-.785l-.552 2.285h-.364l.552-2.285h-.785l.071-.303h1.934ZM37.273 27.558l.623-2.588h1.535l-.071.303h-1.175l-.188.78h1.044l-.072.295h-1.04l-.22.908h1.26l-.07.302h-1.626ZM40.512 24.944c.386 0 .673.09.864.27.19.181.285.425.285.73 0 .215-.034.42-.101.619a1.436 1.436 0 0 1-.862.887c-.221.09-.486.134-.794.134a4.22 4.22 0 0 1-.341-.015 1.826 1.826 0 0 1-.323-.052l.604-2.513a1.99 1.99 0 0 1 .334-.049c.118-.007.23-.011.334-.011Zm-.03.306c-.187 0-.3.005-.338.015l-.48 1.994c.02.005.054.01.101.013.048.004.125.006.233.006.198 0 .376-.033.535-.099.159-.066.293-.158.404-.276.11-.119.195-.259.255-.422.06-.163.09-.342.09-.536 0-.219-.064-.39-.192-.512-.127-.122-.33-.183-.608-.183ZM44.465 27.558h-.364l.289-1.202h-1.205l-.289 1.202h-.364l.623-2.588h.364l-.263 1.083h1.206l.262-1.083h.365l-.624 2.588ZM45.04 27.558l.623-2.588h1.535l-.072.303h-1.175l-.187.78h1.043l-.072.295h-1.04l-.22.908h1.26l-.071.302h-1.625ZM48.285 24.944c.278 0 .498.056.66.168a.56.56 0 0 1 .244.493.81.81 0 0 1-.193.55c-.129.149-.31.255-.542.32a5.879 5.879 0 0 1 .353.775c.04.106.074.208.105.308h-.372l-.109-.288a5.459 5.459 0 0 0-.338-.74 2.647 2.647 0 0 1-.195.008h-.289l-.244 1.02h-.364l.616-2.555c.105-.025.216-.04.334-.048.117-.007.229-.011.334-.011Zm-.045.306c-.178 0-.286.005-.324.015l-.236.979h.222c.102 0 .207-.008.315-.023a.964.964 0 0 0 .294-.087.576.576 0 0 0 .218-.183.524.524 0 0 0 .085-.312c0-.14-.053-.24-.16-.299a.84.84 0 0 0-.414-.09ZM49.217 27.558l.623-2.588h1.535l-.071.303h-1.175l-.188.78h1.044l-.072.295h-1.04l-.221.908h1.261l-.072.302h-1.624Z" fill="#4D4D4D"/>
  <path fill-rule="evenodd" clip-rule="evenodd" d="M10.003 23.119c2.764 0 5.004-2.229 5.004-4.978 0-2.749-2.24-4.977-5.004-4.977C7.24 13.164 5 15.392 5 18.14c0 2.75 2.24 4.978 5.003 4.978Zm2.206-5.687c.1-.663-.407-1.02-1.1-1.257l.224-.898-.549-.136-.219.874c-.144-.036-.292-.07-.44-.103l.22-.88-.548-.136-.225.898c-.12-.027-.237-.054-.35-.083v-.002l-.758-.188-.146.583s.408.093.4.099c.222.055.262.201.255.318l-.256 1.022a.36.36 0 0 1 .057.018l-.058-.014-.36 1.433c-.026.067-.095.167-.25.13.005.007-.4-.1-.4-.1l-.273.626.715.177c.133.033.263.068.39.1l-.226.908.548.136.225-.898c.15.04.296.078.438.113l-.224.894.549.136.227-.906c.937.177 1.64.106 1.937-.737.24-.679-.012-1.07-.504-1.325.359-.083.629-.317.701-.802Zm-1.255 1.75c-.17.679-1.317.312-1.69.22l.302-1.203c.372.092 1.566.275 1.388.983Zm.17-1.76c-.154.617-1.11.303-1.42.227l.273-1.091c.31.077 1.309.22 1.147.864Z" fill="#F7931A"/>
  </symbol>
<symbol id="icon2" viewBox="0 0 512 512" xml:space="preserve">
  <path style="fill:#4e8187" d="M512 16.274V308.3c0 9.016-7.411 16.351-16.351 16.351H16.046C7.335 324.498.153 317.393 0 308.605V16.274C0 7.335 7.335 0 16.275 0H495.65C504.589 0 512 7.335 512 16.274z"/>
  <g style="opacity:.1">
    <path style="fill:#fff" d="M307.689 128.21s-1.299.916-2.063 1.987c-.306.458-1.146.686-1.986.763h-.077c-1.375.153-2.98 0-3.82-.382-1.528-.534-2.063-1.529-2.98-1.223-.229.077-.305.153-.458.229-.535.382-.764.84-2.216 1.298-1.91.459-1.758 1.071-1.834 2.446-.076 1.375.382 2.216-.152 3.133-.458.993-3.668.611-5.654.458-.535-.076-1.07 0-1.528.23h-.077v.076c-1.146.382-2.14 1.298-3.515 2.598-1.91 1.91-1.299 1.986-3.82 1.604-.611-.153-1.299-.076-2.063.077-1.987.229-4.126 1.298-6.036 2.368-2.521 1.376-.84 1.987-1.069 4.737-.229 2.675-.841 4.05-2.369 5.195-1.528 1.147-2.751 1.3-5.119 4.356-.229.229-.382.459-.535.688-1.91 2.368-2.216 2.597-2.979 2.445-.917-.077-.306-5.73-.306-7.489 0-1.681.917-3.667 3.209-5.577l.077-.077c2.216-1.757 3.744-2.139 5.578-4.507 1.757-2.446 1.986-3.897 1.299-5.121-.688-1.222-2.598 2.216-4.05 2.904-1.528.611-1.681-.382-2.827-1.376l-.077-.076c-.534-.382-1.375-.229-2.216.076v.077c-1.146.381-2.369 1.146-2.98 1.223-.993.076-2.139.611-3.896 1.681-.076 0-.229.077-.306.153-1.834 1.145-2.522.229-4.584-.612-1.987-.916-4.126-1.528-7.182-.305-1.146.458-2.827 1.91-4.432 3.591-.077.077-.229.153-.305.23-2.598 2.751-5.043 5.959-4.814 6.953.458 1.681 2.292 1.375 4.737 2.826 2.445 1.452.535 1.452-.382 4.662-.917 3.208-.611 3.591-1.223 6.341-.687 2.75-4.814 5.043-5.807 6.035-.993.994-3.438 3.439-5.96 3.057-2.521-.459-2.521 1.834-4.432 5.119-1.834 3.285-.458 2.369-.077 4.203.383 1.757-1.604 6.113-3.056 7.564-1.375 1.451-2.674-1.223-1.987-4.126.611-2.98-.84-1.528-2.445-2.063-1.681-.611 1.146-1.757.84-3.285-.229-1.528-2.139-.153-2.827.153-.687.381-1.528.992-2.903-.459-1.222-1.222-.993-1.757-.917-1.834-.229.229-1.757 1.757-3.667 3.514-2.14 1.987.382.841 2.751 1.452 2.368.534 1.375 0 3.438.993 2.063 1.069-1.528 1.145-2.98 1.681-1.375.459-1.299 1.298.305 2.446 1.528 1.145 2.522 2.979 3.209 7.335.764 4.355-1.987 5.348-4.508 8.557-2.598 3.286-7.335 4.737-10.544 5.654-3.285.917-2.445 2.215-5.196 1.757-2.674-.535-1.604-1.07-3.897-.305-2.292.839 0 2.673 2.216 5.272 2.216 2.598-.611 8.558-2.14 9.321-1.528.688-1.91 3.056-3.897 2.75-2.063-.305-1.528-1.91-3.438-2.903-1.987-1.069-.23 2.675 1.222 6.8 1.375 3.973 2.903 3.897 3.438 6.112 0 .076.076.229.076.382.229 1.604-1.452 1.299-3.515 0-.23-.153-.382-.229-.611-.382-1.222-.839-2.445-1.91-3.591-3.132-3.285-3.591-3.056-3.056-4.126-6.877-1.069-3.82-.993-4.202-2.369-5.196-1.375-1.069-1.069-1.757-.764-3.438.305-1.757-6.953-9.933-9.856-10.238-2.98-.306-2.063.764-3.515 2.445-1.452 1.757-4.737 3.362-7.106 4.967-2.369 1.682-2.216 2.827-2.216 7.412 0 4.507-1.299 4.355-5.73 5.654-4.431 1.298-2.292-3.592-3.667-4.662-1.375-.992-2.98-6.036-3.744-11.385-.84-5.424-1.452-1.145-5.425-2.292-3.896-1.145-2.216-5.348-4.814-6.799-2.598-1.451-3.591-.841-6.036.306-2.445 1.145-5.043-.306-6.647-2.369-1.528-2.063-3.591-.764-6.418-1.375-2.827-.535-1.91-1.299-4.431-1.682-2.521-.458.229 2.216 1.987 4.814 1.681 2.598 3.744 1.299 9.703 3.591 5.96 2.292.611 3.286-1.757 5.654-2.369 2.369-4.355 2.675-7.641 4.432-3.285 1.834-4.508 1.987-7.946 3.361-3.362 1.376-4.126.382-6.418-.534-2.292-.917-3.82-5.273-6.418-10.85-2.674-5.654-4.508-9.321-6.494-11.767-1.987-2.445-1.528.535-.917 2.293.688 1.681 2.139 3.973 3.667 8.405 1.605 4.355 1.299 2.826 2.14 5.959.917 3.057 5.349 9.78 8.022 11.232 2.674 1.528 9.092-1.147 12.301-1.224 3.285-.077-.229 1.605-3.132 8.176-2.216 4.967-3.362 4.279-5.578 5.119-.687.306-1.528.765-2.598 1.605-4.279 3.515-4.661 7.336-5.272 11.766-.153 1.529-.076 2.904.076 4.279 0 .153 0 .306.076.382.076.764.153 1.604.305 2.369.076.458.153.992.153 1.528.076.458.152.992.152 1.528.076.688.153 1.528.076 2.293 0 .077 0 .229-.076.306 0 .611-.152 1.145-.458 1.681-.229.764-.764 1.528-1.299 2.216-1.605 2.139-3.897 3.972-5.119 5.501a6.163 6.163 0 0 0-.688 1.069c-.076.153-.152.306-.152.459-.153.382-.229.764-.306 1.07-.153.534-.229.993-.305 1.528-.306 1.299-.688 3.056-1.987 6.494-.229.535-.382.994-.611 1.376a8.89 8.89 0 0 1-.993 1.529c-.306.458-.687.763-1.069 1.069-1.146.841-2.368 1.07-3.668 1.528-.84.306-1.757.765-2.597 1.529-2.903 2.674-4.203 3.056-7.182 4.202-.382.153-.841.382-1.299.535-4.049 1.681-8.481-.917-8.939-3.285-.458-2.369.764-2.675.229-6.572-.458-3.897-4.814-11.69-6.342-15.511-1.528-3.82-.535-4.583 1.987-8.633 2.445-4.126-1.758-8.559-4.126-13.295-2.369-4.738-2.521-2.14-2.521-5.501 0-3.362-.229-4.509-2.903-5.883-2.598-1.376-4.202-2.216-8.711-3.362-4.508-1.146-4.432 1.376-8.787.764-4.431-.687-4.202.688-7.029.382-1.299-.153-2.903-1.146-4.432-2.292V194.99c1.605-1.223 4.279-1.91 7.947-3.209 5.501-1.91 4.584-.229 9.398-1.605 4.814-1.375 10.697-2.749 13.983-2.521 3.362.229 2.827 2.674 2.827 4.584 0 1.834.84 1.529 5.043 2.598 4.279 1.069 1.987 2.445 5.119 3.056 3.209.688 2.139-.611 3.667-3.132 1.452-2.522 2.445 0 6.494 1.987 4.126 2.063 3.82.84 8.94.306 5.043-.612 5.501.152 6.647-.382 1.146-.459 1.299-5.73.611-8.1-.764-2.368-1.986-.534-4.661-.534-1.757 0-2.369-.382-2.292-1.299 0-.534.153-1.222.458-2.14.076-.153.076-.305.153-.382.458-1.299.84-1.605 1.834-1.987.535-.229 1.375-.458 2.521-.993.076-.076.229-.076.306-.076v-.077a12.518 12.518 0 0 1 3.362-.687c1.987-.229 3.897-.229 5.349-1.07.305-.229.535-.382.611-.535.458-.839-1.834-1.604-3.286-2.598a2.735 2.735 0 0 1-.764-.534c-.917-.993-.917-1.91-.688-2.98.153-.611.382-1.299.611-2.063.535-2.063-1.299-.611-3.438.611-2.139 1.223.382 1.681-.535 3.362-.458.84-1.222.764-1.91.305-.458-.229-.84-.686-1.146-1.222-.229-.229-.382-.459-.458-.688-.382-.839-.917-.839-1.758-.305-.611.305-1.375.917-2.445 1.681-1.758 1.223-1.146 2.14-.993 3.668.076.458.076.916 0 1.451 0 .306-.153.611-.229.917-.535 1.604-1.452 1.757-2.369 1.681-.917 0-1.834-.153-2.292.687-.993 1.681-.306 2.98-2.14 3.286-1.757.382-1.069 1.376-1.91 2.674-.764 1.299-2.598-.993-2.903-3.514-.305-2.522-3.362-5.272-3.667-6.572-.306-1.298-3.744-2.826-5.578-3.438-1.758-.535-.611 1.299.84 3.056 1.452 1.682 4.202 2.216 4.432 4.05.153 1.91-1.223.917-2.292 1.987-1.07 1.07-.535 3.286-2.14 3.972-1.681.765-1.452-2.062-1.07-4.583.382-2.446-1.987-2.904-3.667-4.509-1.757-1.681-4.432-3.208-5.348-3.973-.84-.687-3.209 1.987-5.807 1.91-2.521-.076-1.528-.534-2.521.612-.993 1.145-2.14 3.132-3.82 3.438-1.681.382-2.521 1.604-2.827 3.514-.382 1.987-1.834 2.14-4.355 3.209-2.522 1.07-5.96-.229-8.099-.993-2.14-.687-1.758-2.293-1.146-3.973.229-.534.305-1.298.535-2.14.382-1.757.993-3.897 3.132-4.66.841-.306 1.452-.382 1.987-.382l.076-.076c1.528-.076 2.292.459 4.05 0 2.369-.688 1.604-1.834 1.528-5.12 0-.152 0-.305-.076-.458-.306-2.598-3.438-1.604-3.896-3.514-.382-1.987 2.75-.688 8.176-1.529.382-.076.764-.153 1.069-.306 2.063-.611 2.827-1.91 3.285-3.286.458-1.375.611-2.902 1.452-3.591 1.91-1.604 3.056-2.14 3.744-5.348.764-3.208 3.285-4.432 5.577-3.514.458.229.764.458.917.764.535 1.07-.84 2.598-.688 4.049.153 1.91 2.445 1.529 3.897 1.91 1.375.306 7.412-.763 9.474-2.292 1.605-1.299 2.751-2.445 4.126-3.514.305-.229.611-.534.993-.764 1.91-1.299.458-2.14.917-2.751.382-.687 1.91-2.445 1.299-4.355-.611-1.605-2.674-.84-3.973-1.834-.153-.153-.305-.381-.458-.611-.764-1.299-.229-2.751.458-4.126l.917-1.834c.229-.535.229-.841.076-.841-.153-.152-.535 0-.993.153-.687.306-1.528.765-2.216 1.071-1.757.839-2.827 2.597-4.432 4.966-.611.917-.917 1.681-.993 2.445l-.076.077c-.229 1.222.076 2.368.153 3.82.153 2.368-3.285 4.66-4.89 4.355-.84-.229-1.299-.993-1.604-1.91-.153-.764-.229-1.681-.306-2.368-.153-1.452-1.146-2.369-2.445-1.91-1.299.535-3.897 1.681-6.418.992-2.522-.611-1.757-4.202-.535-7.335 1.223-3.132 1.91-2.14 5.96-4.203 4.126-1.987 2.979-2.826 6.265-5.654 3.209-2.903 3.897-4.889 7.106-7.258 3.132-2.369 5.272-3.209 13.218-4.05 6.189-.687 4.967.153 5.73 1.604.076.306.306.612.687.918a.914.914 0 0 0 .382.382c1.91 1.376 3.362 1.835 5.196 2.216.993.229 2.139.382 3.514.764 3.973.993 3.591 2.293 4.05 3.209.535.917-1.757 2.521-3.82 2.598h-.917v-.076c-1.452-.076-2.292-.611-3.209-.993-1.146-.458-.382 1.07.382 1.987.611.687 1.528.917 2.98.917.382 0 .917-.076 1.375-.153 2.292-.229 5.578-1.834 6.571-1.604.382.076 1.146 0 2.063-.229 1.604-.459 3.82-1.069 5.425-1.528 2.521-.765 2.521-2.369 3.515-3.056.764-.611 2.445-.764 6.112-.458.611.076 1.375.076 2.14.153 5.119.382 4.584-.535 7.87-1.835 1.375-.535 2.369-.611 3.209-.458 1.223.153 2.216.687 3.668.687 2.521 0 6.189-1.529 7.411-3.209.076-.076.076-.153.153-.153 1.07-1.528 1.605-.84 3.515-1.987 2.063-1.222 1.451-1.069 6.876-2.062 5.501-.993 6.953 1.376 9.322 0 2.368-1.376-1.146-4.508-.459-5.349.611-.916 5.883-.153 8.175-1.145 2.293-1.071.917-2.446 1.987-3.667 1.07-1.299 5.272-1.834 9.551-2.216 4.355-.459 4.126 1.069 6.036.534 1.834-.458 1.299-1.834 2.827-2.139 1.528-.229 1.528-1.071 2.445-1.529.917-.458 4.049-.382 6.494 1.146 2.522 1.528 2.98-.229 5.577 0 2.598.229 1.452 2.521 1.452 3.591 0 1.07-1.91 3.285-3.514 3.973-1.528.764-.153 1.757 2.139 1.604 2.292-.153 3.744-.993 6.495-1.222 2.674-.153 3.667.382 6.189 1.528 2.521 1.145 4.661 1.145 6.265.764 1.681-.458 1.146-1.91 2.063-2.215.917-.382 5.502 1.528 7.947 2.521 2.445.993-.382 2.139 0 3.209.305.992 3.133 2.826 4.966 2.597 1.757-.229 1.07-2.062 3.973-1.91 2.98.153 3.82.153 6.953-.84 3.209-.918 2.98-1.681 7.641-1.376 4.661.382 4.585.764 6.189.993 1.605.229 2.292-.459 5.501.535 3.132.916 2.139 3.208 2.98 3.667.84.458 2.216.305 5.501.076.917-.076 1.452-.076 1.757 0 .917.153.688.84 2.063 1.757 1.91 1.298.688 1.604 1.91 1.375.229 0 .535-.076.84-.153 1.146-.229 2.598-.687 4.737-.84 2.827-.305 2.751.076 4.355 1.146 1.605.993 2.904.84 4.585.076 1.604-.84.458-1.604.687-1.604.306 0 3.285.611 7.488 1.145 1.223.153 2.14.382 2.98.612 1.91.535 3.133 1.222 5.807 2.216.84.305 1.528.611 1.987.992 1.681 1.071 1.528 2.216 2.827 3.209 1.757 1.299 1.757.229 3.362-.458.153-.076.229-.076.305-.076 1.453-.535 2.218.688 3.44 2.063z"/>
    <path style="fill:#fff" d="M235.992 172.685c1.068.393 3.104 2.042 4.329 1.961 1.225-.082 1.879 1.552.898 1.715-.98.163-4.248 1.715-4.248 1.715s-.98-1.225-1.552 0c-.572 1.225-.899 2.124-.735 2.859.163.735 1.307 2.859.654 3.921-.654 1.062-1.552 1.634-1.552 2.941s.817 2.696-.327 3.268c-1.144.572-2.287.735-3.268 1.062-.98.327-1.715.408-2.124 1.307-.408.899-1.389 2.206-3.431 2.124-2.042-.082-2.042-1.715-3.921-.163s-1.96 2.451-2.941 2.042c-.98-.408-.245-.98 0-2.532s-3.349-1.144-.082-2.941c3.268-1.797 3.268-2.042 5.473-2.369 2.206-.327 3.431.735 4.33-1.144.898-1.879 0-2.614 1.797-2.696 1.797-.082 2.941.735 3.268-1.307.327-2.042.082-3.758 0-5.065-.082-1.307-.572-2.532.899-3.022s1.634.408 1.797-.735c.164-1.143-.816-3.512.736-2.941zM203.153 216.96c1.552.245 2.287 3.022 1.797 4.166-.49 1.144-.98 2.451.408 2.696 1.389.245 2.369.408 2.369 1.389 0 .98.572-1.062 1.634 1.552 1.062 2.614.082 3.023 1.307 4.983 1.225 1.961 2.696 2.941.98 3.921-1.715.98-.408 2.042-2.206 1.47-1.797-.572-1.062-.245-1.96-1.96-.899-1.715-1.47-.327-2.287-.408-.817-.082-1.062-.082-.408-1.225.653-1.144.98-1.062.245-2.369-.735-1.307.408-2.859-.654-3.104-1.062-.245-1.389 1.552-3.268 2.696-1.879 1.144-4.656 1.47-4.574 1.062.082-.408 1.144-.98 2.859-3.104s2.777-.817 2.451-4.084c-.327-3.268-1.47-2.369-.408-4.656 1.062-2.29 1.715-3.025 1.715-3.025zM197.925 235.503c1.236 1.236 2.859.899 2.369 2.124-.49 1.225-1.946 1.389-1.136 2.614.81 1.225 1.545 3.023 2.607 2.859 1.062-.163.98-.98 3.594-.98s4.248-.572 4.411.49c.163 1.062-1.144 1.144-2.859 2.696-1.715 1.552-3.431 3.104-2.042 4.084 1.389.98 1.96 2.777 1.47 3.431-.49.654-.98 1.307.163 2.124 1.144.817 6.617.572 5.31 2.532-1.307 1.961-4.493 3.022-7.842 3.104-3.349.082-.657-.899-7.435-1.552-6.778-.654-7.922 1.062-12.66-1.225s-7.842-.327-10.456-4.493-1.552-2.124-4.82-6.453c-3.267-4.329-1.715-4.329-4.493-6.045-2.777-1.715-5.146-4.166-3.268-4.166 1.879 0 .98-2.206 6.78 2.614 5.8 4.82 4.248 4.574 8.496 7.434 4.248 2.859 5.636 3.186 7.189 2.859 1.552-.327 3.839 0 2.369-1.879s-2.287-4.248-1.062-4.656c1.225-.408 1.144 1.634 3.186-.572s2.042-2.777 3.839-3.513c1.797-.735.817 0 2.532-1.062 1.716-1.062 2.369-3.757 3.758-2.369zM220.389 244.979c.889 1.143 2.369 2.614 3.022 3.839.654 1.225 1.879-1.038 4.248-.968 2.369.07 5.882 1.376 7.352 2.03 1.47.654 4.003 1.062 5.555 3.186 1.552 2.124 2.696.899 2.777 3.023.082 2.124.408 1.879 1.797 3.104s1.634 3.513-.817 2.532c-2.451-.98-3.186-4.329-5.8-4.003-2.614.327-1.552 1.062-3.594 1.47-2.042.408-2.941-.327-5.391-.49-2.451-.163-4.248.654-3.104-1.552 1.144-2.206 1.961-2.287-2.042-3.921s-5.555-.817-5.555-2.532.654-1.879-.899-3.349c-1.552-1.47-2.042-2.532-1.062-3.268.981-.735 2.941.164 3.513.899zM225.127 268.505c2.696 1.389 3.758 4.166 5.065 3.676 1.307-.49.817-1.307 1.797-4.248s1.062-5.963 2.287-4.738c1.225 1.225.082 3.617 2.042 4.382 1.961.765 2.369 1.337 2.777 3.624.408 2.287.817 1.552 2.859 3.921 2.042 2.369 3.876 1.961 4.225 4.656.349 2.696 3.78 5.473 3.944 8.25.163 2.777.654 4.738-1.389 8.251-2.042 3.512-2.859 5.31-3.513 6.78-.654 1.47-2.614 2.206-4.738 2.206s-3.349-.899-4.656-.572c-1.307.327-2.206 1.961-3.758.817-1.552-1.144-2.451-2.614-2.941-3.513-.49-.899-.735-3.921-3.022-3.594-2.287.327-1.96 1.47-3.349 0-1.389-1.47-.409-2.696-4.493-3.349-4.084-.654-5.146-.98-6.862-.572-1.715.409-3.513.98-5.391 2.451-1.879 1.47-4.82.735-6.453 1.47-1.634.735-4.084 2.369-5.882 1.389-1.797-.98-1.144-1.47-1.062-3.758.082-2.287-.082-.735-1.225-4.656-1.144-3.921-.654-3.349-1.715-5.228-1.062-1.879-1.879-.98-.408-3.676 1.47-2.696.98-3.267 1.797-4.166.817-.898 1.552.245 4.329-1.634 2.777-1.879 3.594-1.062 6.127-2.042 2.532-.98 3.104-4.738 4.656-5.882 1.552-1.144 1.961-2.042 3.104-2.042s2.451.654 4.493 1.47c2.042.817 1.634.898 3.349-.98 1.715-1.879 0-3.676 3.104-3.349 3.104.327 4.248-.163 4.656 1.634.41 1.797.246 3.022.246 3.022zM281.818 307.062c1.634-2.124 2.451-2.369 1.879-4.819-.572-2.451-.409-4.373 1.715-2.186s4.493 3.412 6.127 3.493c1.634.082 5.555 1.307 1.552 4.329-4.003 3.023-3.268.899-6.453 5.391s-.735 4.574-4.574 6.78-8.087 3.186-7.27 1.225c.817-1.961.408-1.961 3.921-4.575s5.8-4.574 5.8-6.78-2.697-2.858-2.697-2.858zM86.748 285.006c-1.47-2.124-1.47-2.777-1.634-6.208-.163-3.431-1.307-5.065 0-7.025 1.307-1.961 4.738-5.228 6.045-7.515 1.307-2.287 1.634-7.188 2.451-2.777.817 4.411 3.431 7.025-.49 12.907-3.921 5.88-6.372 10.618-6.372 10.618zM8.164 163.455c-.327-.654 1.144-2.777 1.144-2.777s1.797-.98 1.307-4.575c-.49-3.594-.817-1.47-2.124-4.901-1.307-3.431-3.268-2.777-1.307-5.065 1.96-2.287 4.248-5.718 4.738-2.941.49 2.777-.653 4.575.49 5.882 1.144 1.307 3.431 1.577 4.738 3.729 1.307 2.152 6.535 2.969 2.614 5.746-3.921 2.777-5.718.98-7.188 2.941s-4.412 1.961-4.412 1.961z"/>
    <path style="fill:#fff" d="M2.936 160.841c2.614-1.47 3.569-1.144 3.418-3.758-.151-2.614 1.646-4.901-1.131-5.065-2.777-.163-3.594 1.47-3.921 2.614-.327 1.144-.327 1.47.49 2.614s.98 2.777.654 3.594.49.001.49.001zM511.965 266.413c-.506 1.204-.786 2.612-.605 5.358.326 4.904.489 4.41-.489 6.865-.983 2.449-4.573 2.775-7.517 4.573-2.938 1.798-3.101.326-5.062 5.23-1.96 4.899-.82 2.287-2.455 6.533-1.629 4.247.657 2.124-4.084 4.573-4.736 2.449-6.534.326-7.023 1.798-.489 1.472 2.776.326-.651 3.432-3.433 3.101-4.905 3.921-7.028 5.225-2.123 1.309-3.432 2.781-2.938 5.556.489 2.775 2.938 2.612.163 5.231-2.688 2.525-3.846.169-4.66 3.845h-12.823v-.419c0-3.921-.489-.977 1.472-7.674 1.961-6.702-1.309-4.416.326-11.764 1.635-7.354 1.309-15.197 2.938-20.59 1.635-5.387 5.23-3.916 1.635-8.82-3.596-4.899-4.247-4.084-7.348-7.354-3.107-3.264-1.146-2.612-2.944-6.534-1.798-3.921-2.938-3.595-4.41-6.533-1.472-2.944-2.286-1.961-.82-6.865 1.472-4.899-1.792-4.736 1.472-6.208 3.27-1.466 2.781-5.062 2.286-6.371-.489-1.303 2.455-1.798-2.124-2.449-4.573-.651-5.882.814-7.511-1.96-1.635-2.775-.332-3.27-3.758-4.899-3.433-1.635-7.191-1.635-8.5-2.944l-1.303-1.309s2.449-.977-3.107-1.629c-5.55-.657-9.64 0-12.415-3.921-2.775-3.921-2.124-1.635-2.775-5.23-.657-3.596-1.472-3.596-4.084-5.882-2.618-2.287-2.618-3.596-5.067-4.573-2.449-.983-2.938-.651-2.938-.163s-.163 2.449 2.124 4.247 2.449 3.433 2.449 4.247c0 .814-3.107 1.798-3.107 1.798s0-.983-.978-3.27c-.983-2.286-1.309-3.427-3.27-6.208-1.961-2.775-2.449-3.101-2.449-3.101s-2.286-3.595-6.208-8.331c-3.921-4.742-5.067-1.798-5.067-7.191s.983-5.393 0-9.152c-.978-3.753-3.264-5.55-1.303-6.208 1.961-.651 3.101-1.629-.489-4.736-3.595-3.107-4.904-1.472-6.213-5.719-1.303-4.247 1.472-3.921-3.916-5.882-5.393-1.961-6.045-3.596-8.5-4.736-2.449-1.146-3.921-1.798-3.921-1.798s.494-.489-5.387-.983c-5.882-.489-5.23-3.264-9.64-1.466-4.137 1.687-4.969 2.077-5.062 2.118.128-.157 2.327-2.926-1.803-2.612-4.247.331-3.264 1.309-3.427 3.27-.163 1.961.489 4.247-2.449 5.393-2.944 1.14-7.191 4.247-5.556.977 1.635-3.264 5.719-5.55 4.247-6.371-1.472-.814-4.573 1.798-4.905-.814-.326-2.618.332-3.921-3.101-4.084-3.432-.163-6.208-1.635-3.595-2.781 2.612-1.14 5.067-.652 5.882-3.427.814-2.781 6.859-3.432.163-3.27-6.696.163-9.64.163-8.82-1.146.815-1.303.489-3.753 5.225-3.101 4.742.652 4.742-1.309 3.595-2.612-2.548-2.915-6.696-3.107-3.432-4.904 3.27-1.798 5.23-2.938 8.337-3.596 3.101-.651 6.37.658 11.432 1.961 5.067 1.309 13.236.163 16.994 1.309 3.758 1.146 5.55 3.432 6.697 3.27 1.146-.169 4.41-3.596 7.68-3.596 3.264 0 4.899-.489 11.601.326 6.697.814 13.23 1.146 13.393 2.775.163 1.635.163 2.455 2.618 2.455 2.449 0 4.573-1.472 6.045.815 1.466 2.286 3.753 3.921 3.427 2.123-.326-1.798-1.961-3.27-.652-3.921 1.309-.652 5.067-.977 6.045-.652.983.326 4.084.815 5.067.652.978-.163.326-1.798 3.59-.815 3.27.978 3.758 3.427 4.416 3.59.652.169 2.124-2.507 2.286-4.276.163-1.769 1.629-1.769-1.309-4.055-2.938-2.286-.285-5.062 1.821-4.084 2.1.983.792 2.287 2.915 4.41 2.124 2.129 2.455 3.921 3.921 3.27 1.472-.652.657-3.433 2.618-1.309 1.961 2.124 2.449 1.059 4.247.692 1.798-.361.326-1.507 2.45-.361 2.124 1.14 5.719 2.449 3.101 4.573-2.612 2.124-6.533 1.798-9.309 3.433-2.781 1.629-1.96 1.14-2.781 3.101-.814 1.961-.489 2.124-3.752 2.944-3.27.814-4.253.163-4.084 2.938.163 2.775-.169 3.107-1.309 4.573-1.146 1.472-.489 2.781.815 3.433 1.309.652 2.781-.489 2.781 1.472 0 1.961 2.449 3.427 5.719 3.427 3.264 0 4.736.82 6.697 3.27 1.96 2.449-.82 2.612 2.449 5.719 3.27 3.101 6.37 4.573 6.865 1.798.489-2.781 0-3.433.489-6.696.489-3.27 3.596-3.596 1.961-6.54-1.635-2.938-4.084-4.247-1.798-5.882 2.286-1.629-.489-3.142 3.433-3.939 3.921-.797 6.534-1.449 8.168 1.489 1.629 2.944-.163 4.904 1.466 6.208 1.635 1.309 6.702-.652 7.68-1.798.983-1.14 3.759-.978 4.742 3.27.977 4.247 1.629 5.393 3.101 5.882 1.472.489 1.472 1.472 3.27 3.101 1.798 1.635 5.225 4.253 0 4.742-5.23.489-9.477-.163-11.438 1.635-1.96 1.792-2.124.489-.814 2.938 1.303 2.449.326.814 1.303 3.921.983 3.107 5.882 3.107 2.286 5.23-3.59 2.124-2.938 2.612-5.062 1.961-2.124-.657-2.612-5.347-5.067-1.53-2.449 3.816-2.124 5.283-4.247 6.429-2.124 1.146-2.286-1.146-4.247 2.449-1.961 3.596 1.146 3.921-3.264 8.005-4.416 4.085-6.54 2.124-6.865 5.556-.326 3.433 1.798 7.517.652 8.331-1.14.82-.978.652-2.287-1.635-1.303-2.286-.651-3.59-5.224-3.921-4.579-.326-4.247-1.466-6.045.495-1.798 1.96.651 2.612-4.416 1.96-5.061-.657-5.713-6.702-6.696.326-.977 7.022-1.14 7.842.489 9.803 1.635 1.961 6.045 6.697 8.006 4.573 1.96-2.124-.489-4.736 3.269-3.921 3.758.814 4.736-.163 4.084 1.961-.651 2.123-5.719 2.449-1.635 4.41 4.085 1.96 7.517-.326 7.843 2.775.326 3.107-.489 3.921-.326 5.719.163 1.798.977 3.107 4.736 3.107s3.596-1.472 4.579.489c.978 1.961 4.084.983 5.388-1.798 1.309-2.775 2.286-5.882 4.247-2.612 1.961 3.27 2.292 3.921 4.247 2.612l1.961-1.303s2.129-1.961 3.921-.332c1.798 1.635 4.742-.163 5.393 2.124.651 2.292-.326 2.618 2.449 3.433 2.781.82 6.045-.489 7.679 1.798 1.635 2.287-2.775.815 1.961 3.596 4.736 2.775 6.208 3.101 5.882 4.899-.326 1.798.983 2.123 5.23 3.107 4.247.977 3.59.489 7.022 3.101.972.739 1.885 1.181 2.729 1.46v15.073z"/>
  </g>
  <path style="fill:#cececf" d="M73.809 127.675v-.076a10.767 10.767 0 0 0-.84-3.591c-.458-1.146-1.07-2.063-1.987-2.903-.076-.229-.382-.458-.611-.687a10.997 10.997 0 0 0-3.744-2.293c-.229-.076-.458-.153-.688-.153-.382-.229-.84-.306-1.222-.382a14.994 14.994 0 0 0-2.598-.229c-1.604 0-3.132.229-4.584.764a10.966 10.966 0 0 0-3.744 2.293c-1.146.916-1.987 2.14-2.674 3.591-.611 1.451-.917 3.132-.917 4.966v16.505c0 1.681.229 3.208.764 4.431 0 .152.076.305.153.458.688 1.452 1.528 2.675 2.674 3.667a10.997 10.997 0 0 0 3.744 2.293c1.452.459 2.98.764 4.584.764 1.528 0 3.057-.305 4.508-.764a10.966 10.966 0 0 0 3.744-2.293c1.146-.992 1.987-2.215 2.598-3.667.611-1.375.993-3.056.993-4.889v-16.505c0-.46 0-.841-.153-1.3zm-7.029 17.727c0 1.604-.382 2.903-1.223 3.82-.917.992-2.063 1.451-3.438 1.451-1.452 0-2.597-.459-3.514-1.451-.841-.918-1.299-2.216-1.299-3.82v-16.276c0-1.528.382-2.75 1.146-3.667 0-.076.076-.153.153-.229.153-.152.229-.229.382-.305.076-.153.229-.229.382-.306.764-.611 1.681-.84 2.75-.84 1.375 0 2.522.459 3.438 1.451.84.918 1.223 2.216 1.223 3.897v16.275zM91.917 117.665l-7.946 6.953v7.641l7.946-6.877v31.327h7.106v-39.044h-7.106zM112.241 117.665v12.608h6.8v-6.189h10.315l-12.684 32.626h7.717l12.683-32.626v-6.419h-24.831zM166.414 124.008c-.611-1.451-1.452-2.675-2.598-3.591a10.987 10.987 0 0 0-3.744-2.293c-1.452-.535-2.98-.764-4.508-.764-1.605 0-3.133.229-4.585.764a10.966 10.966 0 0 0-3.744 2.293c-1.146.916-1.987 2.14-2.598 3.591-.688 1.451-.993 3.132-.993 4.966v16.505c0 1.834.305 3.514.993 4.889.611 1.452 1.452 2.675 2.598 3.667a10.997 10.997 0 0 0 3.744 2.293c1.452.459 2.98.764 4.585.764 1.528 0 3.056-.305 4.508-.764a10.966 10.966 0 0 0 3.744-2.293c1.146-.992 1.987-2.215 2.598-3.667.688-1.375.993-3.056.993-4.889v-16.505c0-1.834-.306-3.515-.993-4.966zm-6.189 21.394c0 1.604-.382 2.903-1.223 3.82-.917.992-2.063 1.451-3.438 1.451-1.452 0-2.598-.459-3.438-1.451-.917-.918-1.375-2.216-1.375-3.82v-16.276c0-1.681.459-2.979 1.375-3.897.84-.992 1.987-1.451 3.438-1.451 1.375 0 2.521.459 3.438 1.451.841.918 1.223 2.216 1.223 3.897v16.276zM226.24 140.053c-.611-1.452-1.375-2.674-2.369-3.667-.917-.993-2.063-1.757-3.285-2.292-1.223-.535-2.445-.765-3.82-.765-.459 0-.917 0-1.452.076-.458.077-.917.23-1.452.382l8.175-16.122h-7.793l-8.252 16.886a138.137 138.137 0 0 0-2.292 5.273c-.688 1.681-.993 3.361-.993 5.195 0 1.91.305 3.667.917 5.119.611 1.529 1.528 2.751 2.598 3.82 1.069.994 2.369 1.757 3.896 2.293 1.452.535 3.056.84 4.738.84 1.757 0 3.361-.305 4.813-.84 1.528-.535 2.751-1.375 3.897-2.369 1.07-1.069 1.91-2.368 2.522-3.82.688-1.528.993-3.208.993-5.195a13.85 13.85 0 0 0-.841-4.814zm-7.717 9.093c-.993.992-2.216 1.528-3.667 1.528-1.452 0-2.674-.535-3.591-1.528-.917-.994-1.452-2.369-1.452-4.203s.535-3.208 1.452-4.203c.917-.992 2.14-1.528 3.591-1.528 1.528 0 2.751.535 3.667 1.604.917.993 1.375 2.369 1.375 4.126 0 1.835-.458 3.209-1.375 4.204zM258.025 140.129v-.077c-.077-.611-.153-1.299-.306-1.91-.382-1.757-1.375-3.439-2.904-4.967-.84-.84-1.834-1.451-3.056-1.91-1.146-.534-2.598-.764-4.279-.764-1.299 0-2.445.229-3.514.611-1.07.382-1.834.841-2.292 1.376v-8.405h15.74v-6.419H235.18v22.083h6.494c.306-.765.764-1.529 1.452-2.14.764-.688 1.834-1.07 3.285-1.07 1.758 0 2.98.611 3.668 1.834.687 1.146.993 2.598 1.07 4.661v.535c0 1.222-.076 2.368-.229 3.361-.229.993-.611 1.834-1.299 2.446-.841.839-1.91 1.298-3.362 1.298-1.528 0-2.598-.459-3.362-1.298-.764-.841-1.223-1.987-1.452-3.515h-7.106v.23c.152 1.299.382 2.674.764 3.972.382 1.376 1.223 2.675 2.445 3.897.84.841 1.987 1.529 3.438 2.216 1.452.612 3.209.917 5.272.917s3.744-.305 5.196-.917c1.375-.687 2.522-1.375 3.438-2.292 1.375-1.451 2.292-2.979 2.75-4.583.458-1.605.687-3.515.687-5.73.001-1.148-.075-2.294-.304-3.44zM265.131 117.665v12.608h6.8v-6.189h10.315l-6.8 17.421-5.884 15.205h7.717l7.564-19.484v-.076h.077l5.043-13.065v-6.419h-24.832zM320.373 126.377c-.153-.765-.306-1.452-.611-2.14a10.953 10.953 0 0 0-2.598-3.744 11.105 11.105 0 0 0-3.897-2.369c-1.452-.459-3.056-.764-4.737-.764-1.757 0-3.362.305-4.814.84-1.528.535-2.75 1.298-3.896 2.369-.841.839-1.528 1.757-2.063 2.902-.229.306-.382.612-.535.918-.611 1.528-.917 3.285-.917 5.119v.076c0 1.834.306 3.438.917 4.814.535 1.452 1.299 2.674 2.292 3.667.917.993 2.063 1.682 3.285 2.216 1.223.534 2.521.84 3.82.84.458 0 .993-.077 1.452-.153.535-.077.993-.153 1.452-.382l-8.099 16.123h7.717l8.329-16.885c0-.076.076-.153.076-.229.535-1.146 1.07-2.216 1.528-3.286.229-.611.382-1.146.611-1.681a13.39 13.39 0 0 0 .917-4.203c.076-.305.076-.687.076-.993 0-1.069-.076-2.063-.305-3.055zm-8.252 7.334c-.993.992-2.14 1.451-3.591 1.451-1.604 0-2.827-.459-3.744-1.528-.611-.688-.993-1.604-1.146-2.675h-.077c0-.458-.077-.916-.077-1.451 0-1.375.229-2.446.764-3.361.153-.382.382-.612.611-.918.993-.992 2.14-1.451 3.667-1.451 1.452 0 2.598.459 3.591 1.451.84.918 1.375 2.216 1.452 3.897v.841c-.075 1.681-.61 2.827-1.45 3.744zM366.446 117.665l-4.508 3.897h-.077l-3.362 3.056v7.641l7.946-6.877v31.327h7.182v-39.044h-7.181zM386.77 117.665v12.608h6.8v-6.189h10.315l-.153.306-12.531 32.32h7.717l12.684-32.626v-6.419H386.77zM428.794 117.665l-.764.688-5.043 4.355-2.14 1.91v7.641l7.947-6.877v31.327h7.106v-39.044h-7.106zM472.498 124.237c-.611-1.452-1.452-2.751-2.522-3.744-1.146-.994-2.445-1.834-3.897-2.369a15.87 15.87 0 0 0-4.813-.764c-1.681 0-3.286.305-4.814.84-1.452.535-2.751 1.298-3.82 2.369-1.146 1.069-1.987 2.292-2.598 3.82-.611 1.528-.917 3.285-.917 5.119 0 1.834.306 3.514.84 4.89.611 1.452 1.375 2.674 2.368 3.667.382.382.764.764 1.146.993.611.535 1.375.917 2.139 1.223 1.223.534 2.521.84 3.82.84.458 0 .917-.077 1.452-.153.458-.077.993-.153 1.452-.382l-8.099 16.123h7.717l5.501-11.231 2.751-5.654a43.211 43.211 0 0 0 2.292-5.196c.611-1.682.993-3.439.993-5.196.002-1.91-.303-3.667-.991-5.195zm-14.823.992c.917-.992 2.14-1.451 3.591-1.451s2.674.459 3.667 1.451c.917.994 1.375 2.446 1.375 4.279 0 1.834-.458 3.209-1.375 4.203-.993.992-2.216 1.451-3.667 1.451-1.528 0-2.751-.459-3.668-1.528-.917-.993-1.375-2.369-1.375-4.126 0-1.833.459-3.284 1.452-4.279zM334.737 279.876c-.458-.992-.993-1.757-1.757-2.445-.764-.687-1.604-1.223-2.598-1.528-.993-.382-1.987-.534-3.056-.534-1.146 0-2.14.152-3.132.534-.993.305-1.834.84-2.598 1.528-.764.687-1.375 1.452-1.834 2.445-.382.994-.611 2.14-.611 3.439v11.232c0 1.298.229 2.445.611 3.438.458.992 1.07 1.834 1.834 2.445a8.255 8.255 0 0 0 2.598 1.605c.993.305 1.986.458 3.132.458 1.07 0 2.063-.153 3.056-.458a8.255 8.255 0 0 0 2.598-1.605c.764-.611 1.299-1.452 1.757-2.445.459-.993.688-2.14.688-3.438v-11.232c0-1.299-.229-2.445-.688-3.439zm-4.202 14.671c0 1.069-.305 1.986-.917 2.597-.535.688-1.375.994-2.292.994-.993 0-1.834-.306-2.369-.994-.611-.611-.917-1.528-.917-2.597v-11.156c0-1.146.306-2.063.917-2.674.535-.688 1.375-.993 2.369-.993.917 0 1.757.305 2.292.993.611.611.917 1.528.917 2.674v11.156zM356.513 289.58c-.23-1.222-.917-2.368-1.987-3.438a5.595 5.595 0 0 0-2.063-1.298c-.84-.306-1.757-.459-2.904-.459-.917 0-1.681.076-2.445.382-.688.305-1.223.611-1.605.916v-5.73h10.85v-4.355h-15.281v15.053h4.508c.152-.535.458-.994.993-1.452.458-.458 1.222-.687 2.216-.687 1.222 0 2.063.382 2.522 1.222.535.841.764 1.987.764 3.591 0 .841-.077 1.605-.229 2.293-.153.688-.382 1.223-.841 1.681-.535.535-1.375.841-2.292.841-1.07 0-1.834-.306-2.369-.841a4.7 4.7 0 0 1-.917-2.445h-4.89c.077.917.229 1.91.535 2.827.229.993.84 1.91 1.605 2.674.611.611 1.375 1.07 2.369 1.529 1.07.458 2.216.611 3.667.611 1.375 0 2.522-.153 3.515-.611.993-.459 1.757-.918 2.369-1.529.993-.993 1.605-2.062 1.91-3.133.305-1.145.458-2.445.458-3.897 0-1.3-.153-2.522-.458-3.745zM370.419 272.771l-10.697 32.32h4.585l10.697-32.32h-4.585zM385.089 275.598l-5.425 4.737v5.196l5.425-4.737v21.47h4.89v-26.666h-4.89zM406.406 275.598l-5.425 4.737v5.196l5.425-4.737v21.47h4.89v-26.666h-4.89zM420.694 289.275v4.584h11.538v-4.584h-11.538zM453.014 279.876c-.382-.992-.993-1.757-1.758-2.445-.687-.687-1.604-1.223-2.598-1.528-.993-.382-1.987-.534-3.056-.534-1.146 0-2.139.152-3.132.534-.993.305-1.834.84-2.598 1.528-.764.687-1.375 1.452-1.757 2.445-.458.994-.688 2.14-.688 3.439v11.232c0 1.298.229 2.445.688 3.438.382.992.993 1.834 1.757 2.445a8.255 8.255 0 0 0 2.598 1.605c.993.305 1.987.458 3.132.458 1.07 0 2.063-.153 3.056-.458.993-.382 1.91-.918 2.598-1.605a5.767 5.767 0 0 0 1.758-2.445c.458-.993.687-2.14.687-3.438v-11.232c.001-1.299-.228-2.445-.687-3.439zm-4.202 14.671c0 1.069-.306 1.986-.917 2.597-.535.688-1.299.994-2.293.994-.993 0-1.757-.306-2.369-.994-.611-.611-.917-1.528-.917-2.597v-11.156c0-1.146.306-2.063.917-2.674.611-.688 1.375-.993 2.369-.993.993 0 1.758.305 2.293.993.611.611.917 1.528.917 2.674v11.156zM474.332 279.876c-.382-.992-.993-1.757-1.757-2.445-.688-.687-1.605-1.223-2.598-1.528-.993-.382-1.987-.534-3.056-.534-1.146 0-2.14.152-3.133.534-.076 0-.152.077-.229.077-.917.305-1.681.84-2.368 1.451-.764.687-1.299 1.452-1.758 2.445-.458.994-.687 2.14-.687 3.439v11.232c0 1.298.229 2.445.687 3.438.077.077.077.23.153.306.459.839.917 1.604 1.605 2.139a8.25 8.25 0 0 0 2.597 1.605 10.37 10.37 0 0 0 3.133.458 10.23 10.23 0 0 0 3.056-.458c.993-.382 1.91-.918 2.598-1.605a5.765 5.765 0 0 0 1.757-2.445c.459-.993.688-2.14.688-3.438v-11.232c0-1.299-.23-2.445-.688-3.439zm-4.203 14.671c0 1.069-.306 1.986-.84 2.597-.611.688-1.375.994-2.369.994-.993 0-1.758-.306-2.368-.994-.611-.611-.917-1.528-.917-2.597v-11.156c0-1.146.305-2.063.917-2.674.611-.688 1.375-.993 2.368-.993.993 0 1.757.305 2.369.993.535.611.84 1.528.84 2.674v11.156zM46.532 172.678v2.445h3.667v11.537h2.674v-11.537h3.667v-2.445H46.532zM68.995 177.874c0-.535-.076-.994-.153-1.452a6.424 6.424 0 0 0-.382-1.299c-.076-.076-.076-.153-.153-.229a5.592 5.592 0 0 0-.687-.839c-.153-.153-.306-.306-.458-.382a2.88 2.88 0 0 0-1.146-.688c-.305-.152-.687-.229-1.07-.305-.305-.076-.611-.076-.993-.076-.841 0-1.528.153-2.14.382-.611.229-1.146.612-1.605 1.071-.382.382-.611.763-.84 1.069a6.424 6.424 0 0 0-.382 1.299c-.076.458-.153.917-.153 1.452-.076.535-.076 1.145-.076 1.834 0 .611 0 1.222.076 1.757 0 .23 0 .458.076.611 0 .306 0 .611.076.84.076.459.229.917.382 1.299.229.382.458.687.84 1.07.458.458.993.84 1.605 1.069.535.306 1.146.382 1.91.382h.229c.764 0 1.451-.076 2.063-.382.611-.229 1.146-.611 1.605-1.069.382-.382.611-.688.84-1.07a6.47 6.47 0 0 0 .382-1.299c.076-.382.153-.917.153-1.451v-.382c.076-.382.076-.917.076-1.375.002-.691.002-1.302-.075-1.837zm-2.827 4.508c0 .305-.076.534-.153.687-.152.229-.229.382-.382.459a1.806 1.806 0 0 1-.688.611c-.153.076-.382.153-.611.076-.076.077-.229.077-.382.077-.382 0-.764 0-1.07-.153a5.379 5.379 0 0 1-.764-.611c-.076-.076-.229-.229-.305-.459a1.53 1.53 0 0 1-.153-.687 3.552 3.552 0 0 1-.153-1.07v-3.285c0-.459.076-.765.153-1.071 0-.305.076-.535.153-.687.076-.229.229-.382.305-.535.229-.229.535-.382.764-.535a4.47 4.47 0 0 1 1.07-.153c.305 0 .687.076.993.153.306.153.535.306.688.535.153.153.229.306.382.535.076.153.153.382.153.687.076.306.076.612.153 1.071v3.285c-.076.382-.076.687-.153.917v.153zM81.984 175.352c-.229-.535-.458-.993-.917-1.375a4.36 4.36 0 0 0-1.375-.918c-.611-.229-1.223-.382-1.987-.382h-5.349v13.982h2.674v-5.272h2.675c.764 0 1.375-.076 1.987-.306.534-.229.993-.535 1.375-.993.459-.382.687-.84.917-1.376.229-.535.305-1.069.305-1.681.001-.532-.075-1.143-.305-1.679zm-2.903 3.057c-.229.229-.458.382-.764.382-.229.153-.459.153-.764.153h-2.522v-3.82h2.522c.688 0 1.146.229 1.528.535.305.382.535.84.535 1.375 0 .611-.23 1.069-.535 1.375zM94.286 175.123v-2.445h-9.169v13.982h9.169v-2.445h-6.494v-3.362h5.501v-2.445h-5.501v-3.286h6.494zM103.684 183.758c-.382.382-.917.534-1.604.534-.382 0-.688 0-.993-.153a2.744 2.744 0 0 1-.764-.535c-.076-.153-.229-.306-.306-.459-.076-.229-.153-.459-.229-.764 0-.229-.076-.611-.076-1.07-.076-.459-.076-.993-.076-1.604 0-.688 0-1.223.076-1.681 0-.459.076-.765.076-1.071a3.54 3.54 0 0 1 .229-.687c.076-.229.229-.382.306-.535.229-.229.458-.382.764-.535.305-.077.611-.153.993-.153.687 0 1.222.153 1.528.535.382.382.688.84.764 1.451h2.827c-.305-1.528-.84-2.598-1.757-3.361-.917-.688-2.063-1.07-3.362-1.07-.841 0-1.528.153-2.14.382a5.339 5.339 0 0 0-1.604 1.071c-.306.382-.611.763-.764 1.069a3.76 3.76 0 0 0-.458 1.299c-.076.458-.153.917-.153 1.452v3.591c0 .535.076 1.069.153 1.451.076.459.229.917.458 1.299.153.382.459.687.764 1.07a5.35 5.35 0 0 0 1.604 1.069c.611.306 1.299.382 2.14.382 1.299 0 2.445-.382 3.362-1.069.917-.765 1.452-1.835 1.757-3.286h-2.75c-.154.537-.459.996-.765 1.378zM119.653 176.422a3.76 3.76 0 0 0-.458-1.299c-.153-.306-.458-.687-.764-1.069-.459-.459-.993-.841-1.604-1.071a5.95 5.95 0 0 0-2.14-.382 5.95 5.95 0 0 0-2.139.382c-.611.229-1.146.612-1.605 1.071-.306.382-.611.763-.764 1.069a3.76 3.76 0 0 0-.458 1.299c-.076.458-.153.917-.153 1.452v3.591c0 .535.076 1.069.153 1.451.076.459.229.917.458 1.299.153.382.458.687.764 1.07.458.458.993.84 1.605 1.069.611.306 1.299.382 2.139.382.841 0 1.528-.076 2.14-.382.611-.229 1.146-.611 1.604-1.069.306-.382.611-.688.764-1.07.229-.382.382-.84.458-1.299.076-.382.153-.917.153-1.451v-3.591c0-.535-.077-.994-.153-1.452zm-2.598 4.891c0 .459-.076.84-.076 1.07a3.497 3.497 0 0 1-.229.687c-.076.229-.153.382-.305.459-.229.229-.458.458-.764.611-.305.153-.611.153-.993.153s-.687 0-.993-.153c-.305-.153-.535-.382-.764-.611-.153-.076-.229-.229-.305-.459a3.565 3.565 0 0 1-.229-.687c-.076-.229-.076-.611-.076-1.07-.076-.459-.076-.993-.076-1.604 0-.688 0-1.223.076-1.681 0-.459 0-.765.076-1.071a3.54 3.54 0 0 1 .229-.687c.076-.229.153-.382.305-.535.229-.229.458-.382.764-.535.306-.077.611-.153.993-.153s.688.076.993.153c.306.153.535.306.764.535.153.153.229.306.305.535.076.153.153.382.229.687 0 .306.076.612.076 1.071.076.458.076.992.076 1.681 0 .61 0 1.145-.076 1.604zM131.037 172.678v8.557l-5.501-8.557h-2.445v13.982h2.751v-8.557l5.501 8.557h2.445v-13.982h-2.751zM152.431 181.313a3.195 3.195 0 0 0-.687-1.07c-.153-.153-.306-.305-.458-.382-.153-.077-.306-.23-.611-.382 1.146-.612 1.757-1.604 1.757-2.904 0-.611-.152-1.146-.305-1.605-.229-.458-.535-.839-.917-1.222a3.09 3.09 0 0 0-1.299-.765c-.535-.152-1.146-.305-1.834-.305H142.5v13.982h5.807c.687 0 1.299-.153 1.834-.306.458-.229.917-.458 1.299-.839.382-.306.688-.765.841-1.223.229-.459.305-1.07.305-1.682a6.91 6.91 0 0 0-.155-1.297zm-7.182-6.19h2.674c.535 0 .993.153 1.299.459.306.306.458.687.458 1.145 0 .535-.153.918-.458 1.224-.305.229-.764.382-1.299.382h-2.674v-3.21zm4.126 8.635c-.306.305-.764.458-1.299.458h-2.827v-3.439h2.827c.535 0 .993.153 1.299.459.305.306.535.687.535 1.222 0 .535-.23.994-.535 1.3zM161.523 172.678h-2.139l-5.043 13.982h2.827l.841-2.521h4.966l.84 2.521h2.827l-5.119-13.982zm-2.75 9.17 1.757-5.044 1.681 5.044h-3.438zM176.728 172.678v8.557l-5.501-8.557h-2.369v13.982h2.674v-8.557l5.501 8.557h2.445v-13.982h-2.75zM189.564 178.256l4.585-5.577h-3.286l-4.967 6.112v-6.112h-2.674v13.982h2.674v-4.203l1.834-2.139 3.591 6.341h3.132l-4.889-8.404z"/>
  <path style="fill:#f7d072" d="M126.806 245.621v53.623a3.936 3.936 0 0 1-3.924 3.924H56.835a3.936 3.936 0 0 1-3.924-3.924v-53.623a3.935 3.935 0 0 1 3.924-3.924h66.047a3.936 3.936 0 0 1 3.924 3.924z"/>
  <path style="opacity:.2;fill:#fff" d="m112.318 254.663 11.461-11.461h-3.744l-12.531 12.531-1.528 1.528-4.738 4.815-1.528 1.528H82.595l-7.87-7.87-2.522-2.598-9.933-9.932h-3.667l9.856 9.932 1.528 1.529h-15.74v2.598h18.414l4.89 4.967 1.299 1.376v3.056H54.249v2.599h24.603v9.398H54.249v2.598h24.603v3.056h.076l-4.737 4.814-1.528 1.529H54.249v2.597h15.816l-9.933 9.933H63.8l9.933-9.933 8.939-8.939h17.039l18.796 18.872h3.744l-9.933-9.933h14.518v-2.597H109.72l-6.342-6.342h.153v-3.056h23.304v-2.598h-23.304v-9.398h23.304v-2.599h-23.304v-3.056h-.153l6.342-6.342h17.115v-2.598h-14.517zm-11.461 27.048H81.45V266.2h19.407v15.511z"/>
  <path style="fill:#717070" d="m81.297 262.075 1.528 1.528h.076l1.07 1.069h11.843l2.598-2.597H81.297zm0 0 1.528 1.528h.076l1.07 1.069h11.843l2.598-2.597H81.297zm0 0 1.528 1.528h.076l1.07 1.069h11.843l2.598-2.597H81.297zm0 0 1.528 1.528h.076l1.07 1.069h11.843l2.598-2.597H81.297zm0 0 1.528 1.528h.076l1.07 1.069h11.843l2.598-2.597H81.297zm0 0 1.528 1.528h.076l1.07 1.069h11.843l2.598-2.597H81.297zm-3.744 0v20.706h24.679v-20.706H77.553zm22.005 18.107H80.151v-15.511h19.407v15.511zm-18.261-18.107 1.528 1.528h.076l1.07 1.069h11.843l2.598-2.597H81.297zm15.969 19.636-1.528-1.529H83.971l-1.528 1.529h-.076l-.993 1.07h17.038l-1.146-1.07zm-15.969-19.636 1.528 1.528h.076l1.07 1.069h11.843l2.598-2.597H81.297zm0 0 1.528 1.528h.076l1.07 1.069h11.843l2.598-2.597H81.297zm0 0 1.528 1.528h.076l1.07 1.069h11.843l2.598-2.597H81.297zm0 0 1.528 1.528h.076l1.07 1.069h11.843l2.598-2.597H81.297zM72.415 253.141l2.616 2.616h-22.12v-2.616zM126.806 253.141v2.616h-22.119l2.615-2.616z"/>
  <path style="fill:#717070" d="M52.911 265.131h27.22v2.616h-27.22zM99.586 265.131h27.22v2.616h-27.22zM52.911 277.121h27.22v2.616h-27.22zM99.586 277.121h27.22v2.616h-27.22zM75.034 289.107l-2.616 2.616H52.911v-2.616zM126.806 289.107v2.616h-19.507l-2.616-2.616z"/>
  <path style="fill:#717070" d="m83.944 280.198-22.97 22.969h-3.698l22.97-22.969zM122.444 241.697l-22.969 22.97h-3.698l22.969-22.97zM83.94 264.667h-3.697l-22.97-22.97h3.698zM122.441 303.167h-3.698l-20.354-20.354-1.089-1.089-1.527-1.526h3.698l1.423 1.422 1.193 1.193 1.422 1.423 4.872 4.871 1.527 1.527 1.089 1.089 1.527 1.527z"/>
  <path style="fill:#ecedf7" d="M212.505 241.697h-66.047a3.936 3.936 0 0 0-3.924 3.923V299.243a3.936 3.936 0 0 0 3.924 3.924h66.047a3.936 3.936 0 0 0 3.924-3.924V245.62a3.936 3.936 0 0 0-3.924-3.923z"/>
  <path style="fill:#a0bfc2" d="M216.431 266.273v33.325a3.94 3.94 0 0 1-3.927 3.927h-45.752l-24.22-24.22v-33.331c0-2.153 1.769-3.921 3.927-3.921h45.752l24.22 24.22z"/>
  <path style="opacity:.2;fill:#040000" d="M212.39 241.619h-2.289l-61.47 61.47H212.39a3.935 3.935 0 0 0 3.924-3.924V245.541a3.935 3.935 0 0 0-3.924-3.922z"/>
  <path style="fill:#cececf" d="m176.356 66.811 1.845-5.871h14.945l-1.845 5.871h-14.945zM213.106 82.53h-5.567l-.605-34.546h7.712l-.147 22.514 15.471-22.514h7.764L213.106 82.53zM231.394 82.53l11.985-34.546h7.446L238.84 82.53h-7.446zM275.907 72.343a12.989 12.989 0 0 1-2.616 4.462 16.155 16.155 0 0 1-4.109 3.273c-1.578.892-3.313 1.572-5.212 2.041-1.892.466-3.84.703-5.841.703-2.89 0-5.356-.332-7.393-.995-2.041-.663-3.691-1.852-4.954-3.566l6.337-4.367c.835 1.098 1.962 1.86 3.39 2.278 1.423.423 3.011.632 4.764.632 2.25 0 4.074-.371 5.475-1.118 1.4-.742 2.341-1.808 2.824-3.202.415-1.196.353-2.148-.184-2.863a2.685 2.685 0 0 0-1.034-.727c-.41-.162-1.07-.308-1.993-.438l-4.333-.628c-1.635-.225-2.961-.576-3.976-1.042-1.018-.47-1.823-1.078-2.424-1.82-1.272-1.587-1.393-3.85-.372-6.795a13.747 13.747 0 0 1 2.379-4.245 15.623 15.623 0 0 1 3.773-3.297c1.463-.924 3.103-1.643 4.926-2.16 1.823-.517 3.771-.778 5.841-.778 2.642 0 4.837.308 6.589.924a9.252 9.252 0 0 1 4.333 3.104l-6.177 4.221a5.32 5.32 0 0 0-3.177-1.962 18.319 18.319 0 0 0-3.819-.415c-2.001 0-3.624.43-4.867 1.287-1.243.857-2.075 1.883-2.49 3.08a3.592 3.592 0 0 0-.211 1.311c.016.418.155.809.424 1.165.28.324.661.596 1.135.825.476.225 1.104.387 1.895.482l4.332.632c1.673.229 3.004.553 4.005.971.996.423 1.775 1.003 2.341 1.745.741.841 1.131 1.88 1.171 3.107.039 1.229-.212 2.619-.752 4.175zM301.48 82.53l-.133-6.112h-13.549l-4.427 6.112h-7.769l25.861-34.546h5.837l1.944 34.546h-7.764zm-.443-24.359-9.182 12.568h9.482l-.3-12.568zM318.854 66.811l1.845-5.871h14.945l-1.845 5.871h-14.945z"/>
  <path style="opacity:.1;fill:#040000" d="M512 16.274V308.3c0 9.016-7.335 16.351-16.275 16.351H256.038V0h239.687C504.665 0 512 7.335 512 16.274z"/>
  </symbol>
  <symbol id="icon3" viewBox="0 0 50 50" xml:space="preserve">
  <circle cx="23.531" cy="24.505" fill="#E7E3E6" r="23.273"/>
  <path d="M23.531 48.505c-13.233 0-24-10.766-24-24s10.767-24 24-24 24 10.767 24 24-10.766 24-24 24zm0-46.545C11.1 1.96.986 12.074.986 24.505S11.1 47.051 23.531 47.051s22.546-10.114 22.546-22.546S35.963 1.96 23.53 1.96z" fill="#D2D2D2"/>
  <path d="M23.531 48.505c-7.79 0-14.128-10.766-14.128-24s6.338-24 14.128-24 14.129 10.767 14.129 24-6.338 24-14.129 24zm0-46.545c-6.988 0-12.674 10.114-12.674 22.545s5.686 22.546 12.674 22.546c6.989 0 12.674-10.114 12.674-22.546S30.52 1.96 23.531 1.96z" fill="#D2D2D2"/>
  <path fill="#D2D2D2" d="M22.804 1.233h1.455v46.545h-1.455z"/>
  <path d="M23.531 38.634c-13.233 0-24-6.338-24-14.129 0-7.79 10.767-14.128 24-14.128s24 6.338 24 14.128-10.766 14.129-24 14.129zm0-26.803C11.1 11.831.986 17.517.986 24.505c0 6.989 10.114 12.674 22.545 12.674s22.546-5.685 22.546-12.674c0-6.988-10.114-12.674-22.546-12.674z" fill="#D2D2D2"/>
  <path fill="#D2D2D2" d="M.259 23.778h46.545v1.455H.259z"/>
  <circle cx="11.879" cy="12.232" fill="#85BD57" r="3.483"/>
  <circle cx="35.214" cy="13.268" fill="#EC6E62" r="3.483"/>
  <circle cx="11.879" cy="35.742" fill="#FFC966" r="3.483"/>
  <circle cx="37.364" cy="36.39" fill="#53B1E2" r="13.105"/>
  <g fill="#FFF">
    <path d="M31.242 30.972h1.828v10.835h-1.828V30.972zM43.37 31.918c.753.63 1.132 1.602 1.132 2.914s-.386 2.273-1.156 2.883c-.77.61-1.95.914-3.542.914h-1.922v3.178h-1.829V30.972h3.72c1.644 0 2.841.316 3.597.946zm-1.295 4.472c.366-.388.551-.955.551-1.706 0-.748-.234-1.278-.698-1.588-.466-.31-1.194-.465-2.186-.465h-1.86v4.34h2.124c1.012 0 1.702-.194 2.069-.581z"/>
  </g>
     </symbol>
</svg>